<svg width="28" height="27" viewBox="0 0 28 27" fill="none" xmlns="http://www.w3.org/2000/svg">
<path d="M25.25 19.125C25.25 20.015 24.9861 20.885 24.4916 21.6251C23.9971 22.3651 23.2943 22.9419 22.4721 23.2825C21.6498 23.6231 20.745 23.7122 19.8721 23.5385C18.9992 23.3649 18.1974 22.9363 17.568 22.307C16.9387 21.6776 16.5101 20.8758 16.3365 20.0029C16.1628 19.13 16.2519 18.2252 16.5925 17.4029C16.9331 16.5807 17.5099 15.8779 18.2499 15.3834C18.99 14.8889 19.86 14.625 20.75 14.625C21.9435 14.625 23.0881 15.0991 23.932 15.943C24.7759 16.7869 25.25 17.9315 25.25 19.125ZM24.125 3.375H5C4.40326 3.375 3.83097 3.61205 3.40901 4.03401C2.98705 4.45597 2.75 5.02826 2.75 5.625V21.375C2.75 21.9717 2.98705 22.544 3.40901 22.966C3.83097 23.3879 4.40326 23.625 5 23.625H15.7325C14.5753 22.3425 13.9547 20.6646 13.999 18.9377C14.0433 17.2109 14.749 15.567 15.9705 14.3455C17.192 13.124 18.8359 12.4183 20.5627 12.374C22.2896 12.3297 23.9675 12.9503 25.25 14.1075V9C25.25 8.70163 25.1315 8.41548 24.9205 8.2045C24.7095 7.99353 24.4234 7.875 24.125 7.875H6.125C5.82663 7.875 5.54048 7.75647 5.3295 7.54549C5.11853 7.33452 5 7.04837 5 6.75C5 6.45163 5.11853 6.16548 5.3295 5.9545C5.54048 5.74353 5.82663 5.625 6.125 5.625H25.25V4.5C25.25 4.20163 25.1315 3.91548 24.9205 3.7045C24.7095 3.49353 24.4234 3.375 24.125 3.375Z" fill="#4C49ED"/>
</svg>
