<svg width="99" height="36" viewBox="0 0 99 36" fill="none" xmlns="http://www.w3.org/2000/svg">
<path d="M70.3601 12.0329V23.9839C70.3601 26.3347 71.3626 28.5892 73.147 30.2514C74.9315 31.9136 77.3517 32.8475 79.8753 32.8475C82.3988 32.8475 84.8191 31.9136 86.6035 30.2514C88.3879 28.5892 89.3904 26.3347 89.3904 23.9839V9.21136C89.3904 7.64419 88.7221 6.14121 87.5325 5.03305C86.3428 3.92489 84.7294 3.30234 83.047 3.30234C81.3646 3.30234 79.7511 3.92489 78.5615 5.03305C77.3719 6.14121 76.7035 7.64419 76.7035 9.21136V22.7755C76.7035 23.1635 76.7856 23.5477 76.945 23.9062C77.1044 24.2646 77.338 24.5903 77.6325 24.8647C77.927 25.139 78.2767 25.3567 78.6615 25.5052C79.0463 25.6536 79.4587 25.73 79.8753 25.73C80.7165 25.73 81.5232 25.4188 82.118 24.8647C82.7128 24.3106 83.047 23.5591 83.047 22.7755V12.1659" stroke="#A0A0A0" stroke-width="2.6" stroke-linecap="round" stroke-linejoin="round"/>
<mask id="mask0_122_1389" style="mask-type:luminance" maskUnits="userSpaceOnUse" x="6" y="1" width="27" height="34">
<path d="M24.9767 8.47274C24.9767 5.6172 22.4917 3.30234 19.4262 3.30234C16.3608 3.30234 13.8757 5.6172 13.8757 8.47274V18.0749C13.8757 20.9304 16.3608 23.2453 19.4262 23.2453C22.4917 23.2453 24.9767 20.9304 24.9767 18.0749V8.47274Z" fill="white" stroke="white" stroke-width="2.83333" stroke-linejoin="round"/>
<path d="M7.53223 17.3363C7.53223 23.4551 12.8575 28.4157 19.4262 28.4157M19.4262 28.4157C25.9948 28.4157 31.3201 23.4551 31.3201 17.3363M19.4262 28.4157V32.8475" stroke="white" stroke-width="2.83333" stroke-linecap="round" stroke-linejoin="round"/>
</mask>
<g mask="url(#mask0_122_1389)">
<path d="M0.395752 0.347809H38.4564V35.802H0.395752V0.347809Z" fill="#A0A0A0"/>
</g>
</svg>
