<svg width="225" height="42" viewBox="0 0 225 42" fill="none" xmlns="http://www.w3.org/2000/svg">
<path d="M202.118 5.28302C200.065 5.28302 198.386 6.84717 198.386 8.75892C198.386 10.6707 200.065 12.2348 202.118 12.2348C204.17 12.2348 205.849 10.6707 205.849 8.75892C205.849 6.84717 204.17 5.28302 202.118 5.28302ZM202.118 29.6143C200.065 29.6143 198.386 31.1785 198.386 33.0902C198.386 35.0019 200.065 36.5661 202.118 36.5661C204.17 36.5661 205.849 35.0019 205.849 33.0902C205.849 31.1785 204.17 29.6143 202.118 29.6143ZM202.118 17.4487C200.065 17.4487 198.386 19.0128 198.386 20.9246C198.386 22.8363 200.065 24.4005 202.118 24.4005C204.17 24.4005 205.849 22.8363 205.849 20.9246C205.849 19.0128 204.17 17.4487 202.118 17.4487Z" fill="#A0A0A0"/>
<path d="M39.8004 28.6063V34.7517C39.8006 35.1917 39.6217 35.6154 39.2996 35.9373C38.9776 36.2592 38.5365 36.4554 38.0653 36.4862C37.25 36.5383 36.5839 36.5661 36.069 36.5661C19.5817 36.5661 6.21753 24.1172 6.21753 8.75892C6.21753 8.27924 6.24552 7.6588 6.30335 6.89931C6.33642 6.46038 6.54698 6.04947 6.89255 5.7495C7.23812 5.44953 7.69298 5.28282 8.16534 5.28302H14.7625C14.9939 5.2828 15.2172 5.36272 15.3889 5.50725C15.5606 5.65178 15.6685 5.8506 15.6916 6.0651C15.7345 6.46483 15.7737 6.78287 15.811 7.02445C16.1818 9.43485 16.9417 11.7792 18.0648 13.978C18.2421 14.3256 18.1264 14.7409 17.7906 14.9634L13.7643 17.6433C16.2261 22.9866 20.7973 27.2447 26.5333 29.5378L29.4065 25.7943C29.524 25.6414 29.6953 25.5317 29.8907 25.4843C30.086 25.437 30.293 25.4551 30.4756 25.5353C32.8357 26.5797 35.3517 27.2858 37.9384 27.6296C38.1978 27.6643 38.5392 27.7008 38.9646 27.7408C39.1945 27.7628 39.4075 27.8634 39.5623 28.0234C39.717 28.1833 39.8007 28.391 39.8004 28.6063Z" fill="#A0A0A0"/>
<path fill-rule="evenodd" clip-rule="evenodd" d="M99.5034 8.75891C98.0189 8.75891 96.5953 9.30823 95.5456 10.286C94.4959 11.2638 93.9062 12.59 93.9062 13.9728V27.8764C93.9062 29.2591 94.4959 30.5853 95.5456 31.5631C96.5953 32.5409 98.0189 33.0902 99.5034 33.0902H118.161C119.645 33.0902 121.069 32.5409 122.118 31.5631C123.168 30.5853 123.758 29.2591 123.758 27.8764V25.12L128.036 29.1051C128.297 29.3481 128.629 29.5135 128.991 29.5806C129.353 29.6476 129.728 29.6132 130.069 29.4817C130.41 29.3501 130.701 29.1274 130.906 28.8417C131.111 28.556 131.22 28.22 131.221 27.8764V13.9728C131.22 13.6291 131.111 13.2931 130.906 13.0074C130.701 12.7217 130.41 12.499 130.069 12.3675C129.728 12.2359 129.353 12.2015 128.991 12.2686C128.629 12.3356 128.297 12.501 128.036 12.744L123.758 16.7291V13.9728C123.758 12.59 123.168 11.2638 122.118 10.286C121.069 9.30823 119.645 8.75891 118.161 8.75891H99.5034Z" fill="#A0A0A0"/>
</svg>
