<svg width="42" height="42" viewBox="0 0 42 42" fill="none" xmlns="http://www.w3.org/2000/svg">
<circle cx="21" cy="21" r="21" fill="#F5DCDC"/>
<path fill-rule="evenodd" clip-rule="evenodd" d="M21 15.4999C20.8011 15.4999 20.6104 15.5789 20.4697 15.7195C20.329 15.8602 20.25 16.051 20.25 16.2499L20.25 24.9394L17.031 21.7189C16.9613 21.6491 16.8785 21.5938 16.7874 21.5561C16.6963 21.5184 16.5986 21.4989 16.5 21.4989C16.4014 21.4989 16.3038 21.5184 16.2127 21.5561C16.1215 21.5938 16.0388 21.6491 15.969 21.7189C15.8993 21.7886 15.844 21.8714 15.8062 21.9625C15.7685 22.0536 15.7491 22.1513 15.7491 22.2499C15.7491 22.3485 15.7685 22.4461 15.8062 22.5373C15.844 22.6284 15.8993 22.7111 15.969 22.7809L20.469 27.2809C20.5387 27.3507 20.6215 27.4061 20.7126 27.4439C20.8037 27.4818 20.9014 27.5012 21 27.5012C21.0987 27.5012 21.1964 27.4818 21.2875 27.4439C21.3786 27.4061 21.4614 27.3507 21.531 27.2809L26.031 22.7809C26.1719 22.64 26.251 22.449 26.251 22.2499C26.251 22.0507 26.1719 21.8597 26.031 21.7189C25.8902 21.578 25.6992 21.4989 25.5 21.4989C25.3009 21.4989 25.1099 21.578 24.969 21.7189L21.75 24.9394L21.75 16.2499C21.75 16.051 21.671 15.8602 21.5304 15.7195C21.3897 15.5789 21.1989 15.4999 21 15.4999Z" fill="#D14F4F"/>
</svg>
