<svg width="42" height="42" viewBox="0 0 42 42" fill="none" xmlns="http://www.w3.org/2000/svg">
<circle cx="21" cy="20.9998" r="21" fill="#E1E1F5"/>
<g clip-path="url(#clip0_142_2106)">
<path d="M13.5 12.4998C13.5 11.7041 13.8161 10.941 14.3787 10.3784C14.9413 9.81583 15.7044 9.49976 16.5 9.49976H25.5C26.2956 9.49976 27.0587 9.81583 27.6213 10.3784C28.1839 10.941 28.5 11.7041 28.5 12.4998V30.4998C28.5 31.2954 28.1839 32.0585 27.6213 32.6211C27.0587 33.1837 26.2956 33.4998 25.5 33.4998H16.5C15.7044 33.4998 14.9413 33.1837 14.3787 32.6211C13.8161 32.0585 13.5 31.2954 13.5 30.4998V12.4998ZM22.5 28.9998C22.5 28.6019 22.342 28.2204 22.0607 27.9391C21.7794 27.6578 21.3978 27.4998 21 27.4998C20.6022 27.4998 20.2206 27.6578 19.9393 27.9391C19.658 28.2204 19.5 28.6019 19.5 28.9998C19.5 29.3976 19.658 29.7791 19.9393 30.0604C20.2206 30.3417 20.6022 30.4998 21 30.4998C21.3978 30.4998 21.7794 30.3417 22.0607 30.0604C22.342 29.7791 22.5 29.3976 22.5 28.9998Z" fill="#4C49ED"/>
</g>
<defs>
<clipPath id="clip0_142_2106">
<rect width="24" height="24" fill="white" transform="translate(9 9.49976)"/>
</clipPath>
</defs>
</svg>
