<svg width="42" height="42" viewBox="0 0 42 42" fill="none" xmlns="http://www.w3.org/2000/svg">
<circle cx="21" cy="20.9998" r="21" fill="#DCF5E8"/>
<path fill-rule="evenodd" clip-rule="evenodd" d="M21 27.4999C20.8011 27.4999 20.6104 27.4209 20.4697 27.2802C20.329 27.1396 20.25 26.9488 20.25 26.7499L20.25 18.0604L17.031 21.2809C16.9613 21.3506 16.8785 21.4059 16.7874 21.4437C16.6963 21.4814 16.5986 21.5008 16.5 21.5008C16.4014 21.5008 16.3038 21.4814 16.2127 21.4437C16.1215 21.4059 16.0388 21.3506 15.969 21.2809C15.8993 21.2111 15.844 21.1284 15.8062 21.0373C15.7685 20.9461 15.7491 20.8485 15.7491 20.7499C15.7491 20.6513 15.7685 20.5536 15.8062 20.4625C15.844 20.3714 15.8993 20.2886 15.969 20.2189L20.469 15.7189C20.5387 15.649 20.6215 15.5936 20.7126 15.5558C20.8037 15.518 20.9014 15.4985 21 15.4985C21.0987 15.4985 21.1964 15.518 21.2875 15.5558C21.3786 15.5936 21.4614 15.649 21.531 15.7189L26.031 20.2189C26.1719 20.3597 26.251 20.5507 26.251 20.7499C26.251 20.949 26.1719 21.14 26.031 21.2809C25.8902 21.4217 25.6992 21.5008 25.5 21.5008C25.3009 21.5008 25.1099 21.4217 24.969 21.2809L21.75 18.0604L21.75 26.7499C21.75 26.9488 21.671 27.1396 21.5304 27.2802C21.3897 27.4209 21.1989 27.4999 21 27.4999Z" fill="#4FD18B"/>
</svg>
