<svg width="24" height="26" viewBox="0 0 24 26" fill="none" xmlns="http://www.w3.org/2000/svg">
<path d="M4.5 15.3438C3.90326 15.3438 3.33097 15.0968 2.90901 14.6573C2.48705 14.2177 2.25 13.6216 2.25 13C2.25 12.3784 2.48705 11.7823 2.90901 11.3427C3.33097 10.9032 3.90326 10.6563 4.5 10.6562C5.09674 10.6562 5.66903 10.9032 6.09099 11.3427C6.51295 11.7823 6.75 12.3784 6.75 13C6.75 13.6216 6.51295 14.2177 6.09099 14.6573C5.66903 15.0968 5.09674 15.3438 4.5 15.3438ZM12 15.3438C11.4033 15.3438 10.831 15.0968 10.409 14.6573C9.98705 14.2177 9.75 13.6216 9.75 13C9.75 12.3784 9.98705 11.7823 10.409 11.3427C10.831 10.9032 11.4033 10.6563 12 10.6562C12.5967 10.6562 13.169 10.9032 13.591 11.3427C14.0129 11.7823 14.25 12.3784 14.25 13C14.25 13.6216 14.0129 14.2177 13.591 14.6573C13.169 15.0968 12.5967 15.3438 12 15.3438ZM19.5 15.3438C18.9033 15.3438 18.331 15.0968 17.909 14.6573C17.4871 14.2177 17.25 13.6216 17.25 13C17.25 12.3784 17.4871 11.7823 17.909 11.3427C18.331 10.9032 18.9033 10.6563 19.5 10.6562C20.0967 10.6562 20.669 10.9032 21.091 11.3427C21.5129 11.7823 21.75 12.3784 21.75 13C21.75 13.6216 21.5129 14.2177 21.091 14.6573C20.669 15.0968 20.0967 15.3438 19.5 15.3438Z" fill="#A1A0BD"/>
</svg>
