<svg width="19" height="18" viewBox="0 0 19 18" fill="none" xmlns="http://www.w3.org/2000/svg">
<path fill-rule="evenodd" clip-rule="evenodd" d="M10.9947 3.62605C10.9947 3.46001 11.058 3.30077 11.1706 3.18337C11.2832 3.06596 11.436 3 11.5953 3H16.3995C16.5587 3 16.7115 3.06596 16.8241 3.18337C16.9367 3.30077 17 3.46001 17 3.62605V8.63444C17 8.80048 16.9367 8.95972 16.8241 9.07713C16.7115 9.19453 16.5587 9.26049 16.3995 9.26049C16.2402 9.26049 16.0875 9.19453 15.9748 9.07713C15.8622 8.95972 15.7989 8.80048 15.7989 8.63444V5.37899L11.4595 10.9095C11.4064 10.9771 11.3403 11.0324 11.2655 11.0717C11.1906 11.1111 11.1087 11.1336 11.025 11.138C10.9413 11.1424 10.8576 11.1284 10.7794 11.097C10.7011 11.0657 10.6301 11.0176 10.5708 10.9558L7.46363 7.71665L3.07257 14.011C2.97651 14.1383 2.83685 14.2218 2.68293 14.2441C2.52901 14.2663 2.37282 14.2255 2.24717 14.1301C2.12153 14.0348 2.03622 13.8924 2.00917 13.7329C1.98212 13.5734 2.01544 13.4092 2.10212 13.2747L6.90634 6.38818C6.95733 6.31495 7.02295 6.25411 7.09866 6.20986C7.17438 6.16561 7.2584 6.139 7.34493 6.13186C7.43146 6.12472 7.51845 6.13722 7.5999 6.1685C7.68135 6.19978 7.75533 6.2491 7.81674 6.31305L10.9503 9.58103L15.1324 4.2521H11.5953C11.436 4.2521 11.2832 4.18614 11.1706 4.06873C11.058 3.95133 10.9947 3.79209 10.9947 3.62605Z" fill="#4FD18B"/>
</svg>
