<svg width="24" height="25" viewBox="0 0 24 25" fill="none" xmlns="http://www.w3.org/2000/svg">
<g clip-path="url(#clip0_103_1435)">
<path d="M1.99951 4.60048C1.99951 2.39098 6.47701 0.599976 12 0.599976C17.523 0.599976 22.0005 2.39098 22.0005 4.60048V6.59998C22.0005 8.80948 17.523 10.6005 12 10.6005C6.47701 10.6005 1.99951 8.80948 1.99951 6.59998V4.60048Z" fill="#A1A0BD"/>
<path d="M1.99951 10.101V14.601C1.99951 16.8075 6.47701 18.6 12 18.6C17.523 18.6 22.0005 16.809 22.0005 14.5995V10.101C21.325 10.5876 20.59 10.9858 19.8135 11.286C17.715 12.126 14.9505 12.6 12 12.6C9.05101 12.6 6.28651 12.1245 4.18801 11.286C3.41146 10.9858 2.6765 10.5876 2.00101 10.101H1.99951Z" fill="#A1A0BD"/>
<path d="M22.0005 18.102C21.3249 18.5881 20.59 18.9858 19.8135 19.2855C17.7135 20.1255 14.9505 20.5995 11.9985 20.5995C9.04951 20.5995 6.28501 20.1255 4.18651 19.2855C3.40998 18.9853 2.67502 18.5871 1.99951 18.1005V20.5995C1.99951 22.809 6.47701 24.6 12 24.6C17.523 24.6 22.0005 22.809 22.0005 20.5995V18.102Z" fill="#A1A0BD"/>
</g>
<defs>
<clipPath id="clip0_103_1435">
<rect width="24" height="24" fill="white" transform="translate(0 0.599976)"/>
</clipPath>
</defs>
</svg>
