<svg width="18" height="19" viewBox="0 0 18 19" fill="none" xmlns="http://www.w3.org/2000/svg">
<path fill-rule="evenodd" clip-rule="evenodd" d="M10.4947 4.12611C10.4947 3.96007 10.558 3.80083 10.6706 3.68343C10.7832 3.56602 10.936 3.50006 11.0953 3.50006H15.8995C16.0587 3.50006 16.2115 3.56602 16.3241 3.68343C16.4367 3.80083 16.5 3.96007 16.5 4.12611V9.1345C16.5 9.30054 16.4367 9.45978 16.3241 9.57719C16.2115 9.69459 16.0587 9.76055 15.8995 9.76055C15.7402 9.76055 15.5875 9.69459 15.4748 9.57719C15.3622 9.45978 15.2989 9.30054 15.2989 9.1345V5.87905L10.9595 11.4096C10.9064 11.4772 10.8403 11.5324 10.7655 11.5718C10.6906 11.6111 10.6087 11.6337 10.525 11.6381C10.4413 11.6424 10.3576 11.6285 10.2794 11.5971C10.2011 11.5657 10.1301 11.5176 10.0708 11.4559L6.96363 8.21672L2.57257 14.511C2.47651 14.6383 2.33685 14.7219 2.18293 14.7441C2.02901 14.7664 1.87282 14.7255 1.74717 14.6302C1.62153 14.5349 1.53622 14.3925 1.50917 14.233C1.48212 14.0735 1.51544 13.9092 1.60212 13.7748L6.40634 6.88824C6.45733 6.81501 6.52295 6.75417 6.59866 6.70992C6.67438 6.66568 6.7584 6.63906 6.84493 6.63192C6.93146 6.62478 7.01845 6.63728 7.0999 6.66856C7.18135 6.69984 7.25533 6.74916 7.31674 6.81311L10.4503 10.0811L14.6324 4.75216H11.0953C10.936 4.75216 10.7832 4.6862 10.6706 4.56879C10.558 4.45139 10.4947 4.29215 10.4947 4.12611Z" fill="#4FD18B"/>
</svg>
