<svg width="24" height="25" viewBox="0 0 24 25" fill="none" xmlns="http://www.w3.org/2000/svg">
<g clip-path="url(#clip0_122_1400)">
<path d="M24 12.2C24 15.3826 22.7357 18.4348 20.4853 20.6853C18.2348 22.9357 15.1826 24.2 12 24.2C8.8174 24.2 5.76516 22.9357 3.51472 20.6853C1.26428 18.4348 0 15.3826 0 12.2C0 9.0174 1.26428 5.96515 3.51472 3.71472C5.76516 1.46428 8.8174 0.199997 12 0.199997C15.1826 0.199997 18.2348 1.46428 20.4853 3.71472C22.7357 5.96515 24 9.0174 24 12.2ZM8.244 9.2495H9.4815C9.6885 9.2495 9.8535 9.08 9.8805 8.8745C10.0155 7.8905 10.6905 7.1735 11.8935 7.1735C12.9225 7.1735 13.8645 7.688 13.8645 8.9255C13.8645 9.878 13.3035 10.316 12.417 10.982C11.4075 11.7155 10.608 12.572 10.665 13.9625L10.6695 14.288C10.6711 14.3864 10.7113 14.4803 10.7814 14.5493C10.8516 14.6183 10.9461 14.657 11.0445 14.657H12.261C12.3605 14.657 12.4558 14.6175 12.5262 14.5472C12.5965 14.4768 12.636 14.3815 12.636 14.282V14.1245C12.636 13.0475 13.0455 12.734 14.151 11.8955C15.0645 11.201 16.017 10.43 16.017 8.8115C16.017 6.545 14.103 5.45 12.0075 5.45C10.107 5.45 8.025 6.335 7.8825 8.879C7.88045 8.92744 7.88832 8.97579 7.90565 9.02107C7.92297 9.06636 7.94937 9.10762 7.98323 9.14232C8.01709 9.17702 8.05769 9.20443 8.10254 9.22286C8.14738 9.24129 8.19552 9.25036 8.244 9.2495ZM11.7315 18.914C12.6465 18.914 13.275 18.323 13.275 17.5235C13.275 16.6955 12.645 16.1135 11.7315 16.1135C10.8555 16.1135 10.218 16.6955 10.218 17.5235C10.218 18.323 10.8555 18.914 11.733 18.914H11.7315Z" fill="#4C49ED"/>
</g>
<defs>
<clipPath id="clip0_122_1400">
<rect width="24" height="24" fill="white" transform="translate(0 0.199997)"/>
</clipPath>
</defs>
</svg>
