<svg width="24" height="25" viewBox="0 0 24 25" fill="none" xmlns="http://www.w3.org/2000/svg">
<g clip-path="url(#clip0_122_551)">
<path d="M24 12.2C24 15.3826 22.7357 18.4349 20.4853 20.6853C18.2348 22.9357 15.1826 24.2 12 24.2C8.8174 24.2 5.76516 22.9357 3.51472 20.6853C1.26428 18.4349 0 15.3826 0 12.2C0 9.01741 1.26428 5.96517 3.51472 3.71473C5.76516 1.46429 8.8174 0.200012 12 0.200012C15.1826 0.200012 18.2348 1.46429 20.4853 3.71473C22.7357 5.96517 24 9.01741 24 12.2ZM8.244 9.24951H9.4815C9.6885 9.24951 9.8535 9.08001 9.8805 8.87451C10.0155 7.89051 10.6905 7.17351 11.8935 7.17351C12.9225 7.17351 13.8645 7.68801 13.8645 8.92551C13.8645 9.87801 13.3035 10.316 12.417 10.982C11.4075 11.7155 10.608 12.572 10.665 13.9625L10.6695 14.288C10.6711 14.3864 10.7113 14.4803 10.7814 14.5493C10.8516 14.6183 10.9461 14.657 11.0445 14.657H12.261C12.3605 14.657 12.4558 14.6175 12.5262 14.5472C12.5965 14.4769 12.636 14.3815 12.636 14.282V14.1245C12.636 13.0475 13.0455 12.734 14.151 11.8955C15.0645 11.201 16.017 10.43 16.017 8.81151C16.017 6.54501 14.103 5.45001 12.0075 5.45001C10.107 5.45001 8.025 6.33501 7.8825 8.87901C7.88045 8.92745 7.88832 8.9758 7.90565 9.02109C7.92297 9.06637 7.94937 9.10763 7.98323 9.14234C8.01709 9.17704 8.05769 9.20445 8.10254 9.22288C8.14738 9.24131 8.19552 9.25037 8.244 9.24951ZM11.7315 18.914C12.6465 18.914 13.275 18.323 13.275 17.5235C13.275 16.6955 12.645 16.1135 11.7315 16.1135C10.8555 16.1135 10.218 16.6955 10.218 17.5235C10.218 18.323 10.8555 18.914 11.733 18.914H11.7315Z" fill="#A1A0BD"/>
</g>
<defs>
<clipPath id="clip0_122_551">
<rect width="24" height="24" fill="white" transform="translate(0 0.200012)"/>
</clipPath>
</defs>
</svg>
