<svg width="19" height="19" viewBox="0 0 19 19" fill="none" xmlns="http://www.w3.org/2000/svg">
<path fill-rule="evenodd" clip-rule="evenodd" d="M11.2447 14.874C11.2447 15.0401 11.308 15.1993 11.4206 15.3167C11.5332 15.4341 11.686 15.5001 11.8453 15.5001H16.6495C16.8087 15.5001 16.9615 15.4341 17.0741 15.3167C17.1867 15.1993 17.25 15.0401 17.25 14.874V9.86562C17.25 9.69958 17.1867 9.54034 17.0741 9.42294C16.9615 9.30553 16.8087 9.23957 16.6495 9.23957C16.4902 9.23957 16.3375 9.30553 16.2248 9.42294C16.1122 9.54034 16.0489 9.69958 16.0489 9.86562V13.1211L11.7095 7.59056C11.6564 7.52296 11.5903 7.46771 11.5155 7.42835C11.4406 7.389 11.3587 7.36641 11.275 7.36205C11.1913 7.35768 11.1076 7.37164 11.0294 7.40302C10.9511 7.43439 10.8801 7.4825 10.8208 7.54423L7.71363 10.7834L3.32257 4.48911C3.22651 4.36177 3.08685 4.27821 2.93293 4.25598C2.77901 4.23376 2.62282 4.27459 2.49717 4.36991C2.37153 4.46523 2.28622 4.60761 2.25917 4.76713C2.23212 4.92665 2.26544 5.0909 2.35212 5.22534L7.15634 12.1119C7.20733 12.1851 7.27295 12.2459 7.34866 12.2902C7.42438 12.3344 7.5084 12.3611 7.59493 12.3682C7.68146 12.3753 7.76845 12.3628 7.8499 12.3316C7.93135 12.3003 8.00533 12.251 8.06674 12.187L11.2003 8.91903L15.3824 14.248H11.8453C11.686 14.248 11.5332 14.3139 11.4206 14.4313C11.308 14.5487 11.2447 14.708 11.2447 14.874Z" fill="#D14F4F"/>
</svg>
