<svg width="19" height="18" viewBox="0 0 19 18" fill="none" xmlns="http://www.w3.org/2000/svg">
<path fill-rule="evenodd" clip-rule="evenodd" d="M11.2447 14.374C11.2447 14.54 11.308 14.6992 11.4206 14.8166C11.5332 14.934 11.686 15 11.8453 15H16.6495C16.8087 15 16.9615 14.934 17.0741 14.8166C17.1867 14.6992 17.25 14.54 17.25 14.374V9.36556C17.25 9.19952 17.1867 9.04028 17.0741 8.92287C16.9615 8.80547 16.8087 8.73951 16.6495 8.73951C16.4902 8.73951 16.3375 8.80547 16.2248 8.92287C16.1122 9.04028 16.0489 9.19952 16.0489 9.36556V12.621L11.7095 7.0905C11.6564 7.0229 11.5903 6.96765 11.5155 6.92829C11.4406 6.88894 11.3587 6.86635 11.275 6.86199C11.1913 6.85762 11.1076 6.87158 11.0294 6.90295C10.9511 6.93433 10.8801 6.98243 10.8208 7.04417L7.71363 10.2833L3.32257 3.98905C3.22651 3.86171 3.08685 3.77815 2.93293 3.75592C2.77901 3.7337 2.62282 3.77453 2.49717 3.86985C2.37153 3.96517 2.28622 4.10755 2.25917 4.26707C2.23212 4.42659 2.26544 4.59083 2.35212 4.72528L7.15634 11.6118C7.20733 11.6851 7.27295 11.7459 7.34866 11.7901C7.42438 11.8344 7.5084 11.861 7.59493 11.8681C7.68146 11.8753 7.76845 11.8628 7.8499 11.8315C7.93135 11.8002 8.00533 11.7509 8.06674 11.6869L11.2003 8.41897L15.3824 13.7479H11.8453C11.686 13.7479 11.5332 13.8139 11.4206 13.9313C11.308 14.0487 11.2447 14.2079 11.2447 14.374Z" fill="#D14F4F"/>
</svg>
