<svg width="19" height="19" viewBox="0 0 19 19" fill="none" xmlns="http://www.w3.org/2000/svg">
<path fill-rule="evenodd" clip-rule="evenodd" d="M10.9947 4.12611C10.9947 3.96007 11.058 3.80083 11.1706 3.68343C11.2832 3.56602 11.436 3.50006 11.5953 3.50006H16.3995C16.5587 3.50006 16.7115 3.56602 16.8241 3.68343C16.9367 3.80083 17 3.96007 17 4.12611V9.1345C17 9.30054 16.9367 9.45978 16.8241 9.57719C16.7115 9.69459 16.5587 9.76055 16.3995 9.76055C16.2402 9.76055 16.0875 9.69459 15.9748 9.57719C15.8622 9.45978 15.7989 9.30054 15.7989 9.1345V5.87905L11.4595 11.4096C11.4064 11.4772 11.3403 11.5324 11.2655 11.5718C11.1906 11.6111 11.1087 11.6337 11.025 11.6381C10.9413 11.6424 10.8576 11.6285 10.7794 11.5971C10.7011 11.5657 10.6301 11.5176 10.5708 11.4559L7.46363 8.21672L3.07257 14.511C2.97651 14.6383 2.83685 14.7219 2.68293 14.7441C2.52901 14.7664 2.37282 14.7255 2.24717 14.6302C2.12153 14.5349 2.03622 14.3925 2.00917 14.233C1.98212 14.0735 2.01544 13.9092 2.10212 13.7748L6.90634 6.88824C6.95733 6.81501 7.02295 6.75417 7.09866 6.70992C7.17438 6.66568 7.2584 6.63906 7.34493 6.63192C7.43146 6.62478 7.51845 6.63728 7.5999 6.66856C7.68135 6.69984 7.75533 6.74916 7.81674 6.81311L10.9503 10.0811L15.1324 4.75216H11.5953C11.436 4.75216 11.2832 4.6862 11.1706 4.56879C11.058 4.45139 10.9947 4.29215 10.9947 4.12611Z" fill="#4FD18B"/>
</svg>
