<svg width="25" height="25" viewBox="0 0 25 25" fill="none" xmlns="http://www.w3.org/2000/svg">
<path d="M2 4.54999C2 3.95325 2.23705 3.38095 2.65901 2.959C3.08097 2.53704 3.65326 2.29999 4.25 2.29999H8.75C9.34674 2.29999 9.91903 2.53704 10.341 2.959C10.7629 3.38095 11 3.95325 11 4.54999V9.04999C11 9.64672 10.7629 10.219 10.341 10.641C9.91903 11.0629 9.34674 11.3 8.75 11.3H4.25C3.65326 11.3 3.08097 11.0629 2.65901 10.641C2.23705 10.219 2 9.64672 2 9.04999V4.54999ZM14 4.54999C14 3.95325 14.2371 3.38095 14.659 2.959C15.081 2.53704 15.6533 2.29999 16.25 2.29999H20.75C21.3467 2.29999 21.919 2.53704 22.341 2.959C22.7629 3.38095 23 3.95325 23 4.54999V9.04999C23 9.64672 22.7629 10.219 22.341 10.641C21.919 11.0629 21.3467 11.3 20.75 11.3H16.25C15.6533 11.3 15.081 11.0629 14.659 10.641C14.2371 10.219 14 9.64672 14 9.04999V4.54999ZM2 16.55C2 15.9533 2.23705 15.381 2.65901 14.959C3.08097 14.537 3.65326 14.3 4.25 14.3H8.75C9.34674 14.3 9.91903 14.537 10.341 14.959C10.7629 15.381 11 15.9533 11 16.55V21.05C11 21.6467 10.7629 22.219 10.341 22.641C9.91903 23.0629 9.34674 23.3 8.75 23.3H4.25C3.65326 23.3 3.08097 23.0629 2.65901 22.641C2.23705 22.219 2 21.6467 2 21.05V16.55ZM14 16.55C14 15.9533 14.2371 15.381 14.659 14.959C15.081 14.537 15.6533 14.3 16.25 14.3H20.75C21.3467 14.3 21.919 14.537 22.341 14.959C22.7629 15.381 23 15.9533 23 16.55V21.05C23 21.6467 22.7629 22.219 22.341 22.641C21.919 23.0629 21.3467 23.3 20.75 23.3H16.25C15.6533 23.3 15.081 23.0629 14.659 22.641C14.2371 22.219 14 21.6467 14 21.05V16.55Z" fill="#A1A0BD"/>
</svg>
