<svg width="24" height="25" viewBox="0 0 24 25" fill="none" xmlns="http://www.w3.org/2000/svg">
<path d="M1.5 4.14999C1.5 3.55326 1.73705 2.98096 2.15901 2.559C2.58097 2.13705 3.15326 1.89999 3.75 1.89999H8.25C8.84674 1.89999 9.41903 2.13705 9.84099 2.559C10.2629 2.98096 10.5 3.55326 10.5 4.14999V8.64999C10.5 9.24673 10.2629 9.81903 9.84099 10.241C9.41903 10.6629 8.84674 10.9 8.25 10.9H3.75C3.15326 10.9 2.58097 10.6629 2.15901 10.241C1.73705 9.81903 1.5 9.24673 1.5 8.64999V4.14999ZM13.5 4.14999C13.5 3.55326 13.7371 2.98096 14.159 2.559C14.581 2.13705 15.1533 1.89999 15.75 1.89999H20.25C20.8467 1.89999 21.419 2.13705 21.841 2.559C22.2629 2.98096 22.5 3.55326 22.5 4.14999V8.64999C22.5 9.24673 22.2629 9.81903 21.841 10.241C21.419 10.6629 20.8467 10.9 20.25 10.9H15.75C15.1533 10.9 14.581 10.6629 14.159 10.241C13.7371 9.81903 13.5 9.24673 13.5 8.64999V4.14999ZM1.5 16.15C1.5 15.5533 1.73705 14.981 2.15901 14.559C2.58097 14.137 3.15326 13.9 3.75 13.9H8.25C8.84674 13.9 9.41903 14.137 9.84099 14.559C10.2629 14.981 10.5 15.5533 10.5 16.15V20.65C10.5 21.2467 10.2629 21.819 9.84099 22.241C9.41903 22.6629 8.84674 22.9 8.25 22.9H3.75C3.15326 22.9 2.58097 22.6629 2.15901 22.241C1.73705 21.819 1.5 21.2467 1.5 20.65V16.15ZM13.5 16.15C13.5 15.5533 13.7371 14.981 14.159 14.559C14.581 14.137 15.1533 13.9 15.75 13.9H20.25C20.8467 13.9 21.419 14.137 21.841 14.559C22.2629 14.981 22.5 15.5533 22.5 16.15V20.65C22.5 21.2467 22.2629 21.819 21.841 22.241C21.419 22.6629 20.8467 22.9 20.25 22.9H15.75C15.1533 22.9 14.581 22.6629 14.159 22.241C13.7371 21.819 13.5 21.2467 13.5 20.65V16.15Z" fill="#A1A0BD"/>
</svg>
